<svg width="100" height="100" viewBox="0 0 100 100" fill="none" xmlns="http://www.w3.org/2000/svg">
<path d="M31.1125 5.34374C31.008 4.93484 30.8218 4.55134 30.565 4.21638C30.3083 3.88142 29.9863 3.60193 29.6186 3.39478C29.2509 3.18764 28.8451 3.05711 28.4255 3.0111C28.006 2.96508 27.5815 3.00451 27.1777 3.12702C26.7738 3.24954 26.3989 3.45259 26.0757 3.72393C25.7524 3.99526 25.4875 4.32927 25.2968 4.70579C25.1062 5.08232 24.9938 5.49356 24.9664 5.91471C24.939 6.33586 24.9972 6.7582 25.1375 7.15624L27.7 15.6062C21.9634 21.4497 18.7496 29.3113 18.75 37.5H81.25C81.2504 29.3113 78.0366 21.4497 72.3 15.6062L74.8625 7.15624C75.0028 6.7582 75.061 6.33586 75.0336 5.91471C75.0062 5.49356 74.8938 5.08232 74.7032 4.70579C74.5125 4.32927 74.2476 3.99526 73.9243 3.72393C73.6011 3.45259 73.2262 3.24954 72.8223 3.12702C72.4185 3.00451 71.994 2.96508 71.5744 3.0111C71.1549 3.05711 70.7491 3.18764 70.3814 3.39478C70.0137 3.60193 69.6917 3.88142 69.435 4.21638C69.1782 4.55134 68.992 4.93484 68.8875 5.34374L67.0687 11.3187C61.9911 8.00972 56.0607 6.24864 50 6.24999C43.9393 6.24864 38.0089 8.00972 32.9313 11.3187L31.1125 5.34374Z" fill="#FF0000"/>
<path d="M81.25 37.5V43.75H53.125V99.8438C60.8332 99.069 67.9789 95.4588 73.1758 89.7134C78.3726 83.968 81.2501 76.4971 81.25 68.75H84.375C85.2038 68.75 85.9987 69.0792 86.5847 69.6653C87.1708 70.2513 87.5 71.0462 87.5 71.875V75C87.5 75.8288 87.8292 76.6237 88.4153 77.2097C89.0013 77.7958 89.7962 78.125 90.625 78.125C91.4538 78.125 92.2487 77.7958 92.8347 77.2097C93.4208 76.6237 93.75 75.8288 93.75 75V71.875C93.75 69.3886 92.7623 67.004 91.0041 65.2459C89.246 63.4877 86.8614 62.5 84.375 62.5H81.25V56.25H90.625C91.4538 56.25 92.2487 55.9208 92.8347 55.3347C93.4208 54.7487 93.75 53.9538 93.75 53.125C93.75 52.2962 93.4208 51.5013 92.8347 50.9153C92.2487 50.3292 91.4538 50 90.625 50H81.25V43.75H84.375C86.8614 43.75 89.246 42.7623 91.0041 41.0041C92.7623 39.246 93.75 36.8614 93.75 34.375V31.25C93.75 30.4212 93.4208 29.6263 92.8347 29.0403C92.2487 28.4542 91.4538 28.125 90.625 28.125C89.7962 28.125 89.0013 28.4542 88.4153 29.0403C87.8292 29.6263 87.5 30.4212 87.5 31.25V34.375C87.5 35.2038 87.1708 35.9987 86.5847 36.5847C85.9987 37.1708 85.2038 37.5 84.375 37.5H81.25ZM46.875 99.8438V43.75H18.75V37.5H15.625C14.7962 37.5 14.0013 37.1708 13.4153 36.5847C12.8292 35.9987 12.5 35.2038 12.5 34.375V31.25C12.5 30.4212 12.1708 29.6263 11.5847 29.0403C10.9987 28.4542 10.2038 28.125 9.375 28.125C8.5462 28.125 7.75134 28.4542 7.16529 29.0403C6.57924 29.6263 6.25 30.4212 6.25 31.25V34.375C6.25 36.8614 7.23772 39.246 8.99587 41.0041C10.754 42.7623 13.1386 43.75 15.625 43.75H18.75V50H9.375C8.5462 50 7.75134 50.3292 7.16529 50.9153C6.57924 51.5013 6.25 52.2962 6.25 53.125C6.25 53.9538 6.57924 54.7487 7.16529 55.3347C7.75134 55.9208 8.5462 56.25 9.375 56.25H18.75V62.5H15.625C13.1386 62.5 10.754 63.4877 8.99587 65.2459C7.23772 67.004 6.25 69.3886 6.25 71.875V75C6.25 75.8288 6.57924 76.6237 7.16529 77.2097C7.75134 77.7958 8.5462 78.125 9.375 78.125C10.2038 78.125 10.9987 77.7958 11.5847 77.2097C12.1708 76.6237 12.5 75.8288 12.5 75V71.875C12.5 71.0462 12.8292 70.2513 13.4153 69.6653C14.0013 69.0792 14.7962 68.75 15.625 68.75H18.75C18.7499 76.4971 21.6274 83.968 26.8242 89.7134C32.0211 95.4588 39.1668 99.069 46.875 99.8438Z" fill="#3E3E3E"/>
</svg>
