<svg width="48" height="48" viewBox="0 0 48 48" fill="none" xmlns="http://www.w3.org/2000/svg">
<mask id="mask0_13_34" style="mask-type:alpha" maskUnits="userSpaceOnUse" x="0" y="0" width="48" height="48">
<rect width="48" height="48" fill="#D9D9D9"/>
</mask>
<g mask="url(#mask0_13_34)">
<path d="M23.29 44.049L32.514 19.7675H37.011L46.223 44.049H42.6435L40.562 38.7065H28.889L26.8075 44.049H23.29ZM7.95648 38.3075L5.65748 35.9835L15.66 25.9935C13.8706 24.1298 12.3846 22.2732 11.202 20.4235C10.0193 18.5738 9.16498 16.8102 8.63898 15.1325H12.3035C12.7388 16.4535 13.4336 17.8232 14.388 19.2415C15.3423 20.6595 16.5491 22.1272 18.0085 23.6445C19.5928 21.9945 21.0063 20.0582 22.249 17.8355C23.4916 15.6125 24.401 13.4115 24.977 11.2325H1.89148V7.939H16.2165V3.939H19.51V7.939H33.81V11.2325H28.5045C27.8965 13.8342 26.8615 16.4497 25.3995 19.079C23.9375 21.7083 22.2405 24.0258 20.3085 26.0315L24.7785 30.589L23.473 34.0805L17.935 28.3675L7.95648 38.3075ZM30.0455 35.588H39.3805L34.713 23.352L30.0455 35.588Z" fill="#FF0000"/>
</g>
</svg>
